<mxfile host="app.diagrams.net" modified="2024-02-21T15:52:45.369Z" agent="Mozilla/5.0 (X11; Linux x86_64; rv:122.0) Gecko/20100101 Firefox/122.0" version="23.1.5" etag="Dw_qU-q_gGVDUzxG-u3W" type="github">
  <diagram name="Page-1" id="QjmQnJK9rUVKi448pu9I">
    <mxGraphModel>
      <root>
        <mxCell id="0" />
        <mxCell id="1" parent="0" />
      </root>
    </mxGraphModel>
  </diagram>
</mxfile>
